<svg xmlns="http://www.w3.org/2000/svg" viewBox="0 0 170.69 47.48"><defs><style>.cls-1{fill:#fff}</style></defs><g id="Layer_2" data-name="Layer 2"><g id="Layer_1-2" data-name="Layer 1"><path class="cls-1" d="M44.25 41.13l-1.07 3a.12.12 0 01-.12.09h-1q-.12 0-.09-.12l3.23-9c0-.06 0-.12.06-.2a2.35 2.35 0 000-.4.07.07 0 01.07-.08h1.46s.07 0 .08.08l3.48 9.6c0 .07 0 .11-.06.11h-1.08a.14.14 0 01-.12-.08l-1.08-3zM47.67 40l-.33-1c-.15-.41-.3-.84-.46-1.29l-.44-1.28c-.14-.42-.24-.76-.31-1 0 .24-.14.53-.25.88l-.39 1.14-.49 1.27c-.16.44-.3.86-.44 1.27zm3.98-1.31V37.1a.08.08 0 01.09-.09h.92a.14.14 0 01.13.09 1.54 1.54 0 01.05.3v.44a3.12 3.12 0 012.27-1 3 3 0 01.82.12 2 2 0 01.78.44 2.37 2.37 0 01.58.87 3.85 3.85 0 01.23 1.43v4.4c0 .07 0 .11-.1.11h-1c-.07 0-.1 0-.1-.12v-4.25a2.33 2.33 0 00-.37-1.36 1.32 1.32 0 00-1.22-.48 2.23 2.23 0 00-1 .24 2.57 2.57 0 00-.82.66v5.2c0 .07 0 .11-.09.11h-1c-.06 0-.09 0-.09-.11zm12.71 2.44l-1.07 3a.12.12 0 01-.12.09h-1c-.07 0-.1 0-.08-.12l3.22-9c0-.06 0-.12.06-.2a2.08 2.08 0 000-.4s0-.08.07-.08h1.45a.09.09 0 01.09.08l3.48 9.6c0 .07 0 .11-.06.11h-1.08a.14.14 0 01-.12-.08l-1.08-3zM67.78 40c-.08-.24-.19-.56-.34-1L67 37.72c-.16-.44-.3-.87-.44-1.28s-.24-.76-.31-1c-.06.24-.14.53-.26.88s-.24.73-.38 1.14-.29.83-.45 1.27-.3.86-.43 1.27zm7.07 4.36a4.42 4.42 0 01-1.43-.23 3.25 3.25 0 01-1.16-.7 3.13 3.13 0 01-.78-1.15 4.21 4.21 0 01-.28-1.61 3.76 3.76 0 01.29-1.51 3.46 3.46 0 01.82-1.16 3.92 3.92 0 011.27-.8 4.52 4.52 0 011.64-.29 3.74 3.74 0 01.52 0l.42.06v-3.29a.08.08 0 01.09-.09h1.06c.06 0 .09 0 .09.08v9.66a2.31 2.31 0 000 .37.11.11 0 01-.07.11 5.48 5.48 0 01-1.26.42 6.63 6.63 0 01-1.22.13zm1.31-6.28a1.58 1.58 0 00-.43-.11 3.12 3.12 0 00-.54 0 3.17 3.17 0 00-1.14.2 2.38 2.38 0 00-.85.56 2.54 2.54 0 00-.55.85 2.9 2.9 0 00-.19 1.07 3.24 3.24 0 00.2 1.23A2.25 2.25 0 0074 43.13a3 3 0 00.94.15h.62a2 2 0 00.57-.16zm6.2-1.22a3.38 3.38 0 011.41.29 3 3 0 011.06.78 3.7 3.7 0 01.67 1.18 4.72 4.72 0 010 3 3.37 3.37 0 01-.69 1.18 3 3 0 01-1.07.76 3.37 3.37 0 01-1.36.28 3.32 3.32 0 01-1.55-.33 3.09 3.09 0 01-1.06-.86 3.49 3.49 0 01-.61-1.2 4.57 4.57 0 01-.2-1.36 4.44 4.44 0 01.23-1.47 3.77 3.77 0 01.68-1.11 3.31 3.31 0 011.08-.8 3.38 3.38 0 011.41-.34zm-.06 1.07a1.9 1.9 0 00-.86.19 2.12 2.12 0 00-.66.54 2.77 2.77 0 00-.43.84 3.71 3.71 0 00-.15 1.08 3.62 3.62 0 00.15 1.06 2.93 2.93 0 00.42.87 2 2 0 00.68.57 2 2 0 00.94.21 1.87 1.87 0 00.77-.16 1.81 1.81 0 00.67-.48 2.77 2.77 0 00.47-.83 3.51 3.51 0 00.18-1.19 3.66 3.66 0 00-.13-1 2.68 2.68 0 00-.38-.86 1.94 1.94 0 00-1.67-.84zm6.12-4.34h.08v3.56a4.15 4.15 0 011.6-.3 3.62 3.62 0 011.39.26 3.23 3.23 0 011.07.73 3.4 3.4 0 01.68 1.09 3.9 3.9 0 01.23 1.39 4.11 4.11 0 01-.34 1.75 3.8 3.8 0 01-.92 1.26 3.66 3.66 0 01-1.31.76 4.64 4.64 0 01-1.53.26 8.67 8.67 0 01-1-.07 4.43 4.43 0 01-1-.23c-.06 0-.09-.05-.09-.13V33.68c0-.06 0-.09.1-.09zm3.82 6.84a2.54 2.54 0 00-.63-1.81 2.16 2.16 0 00-1.68-.68 4.32 4.32 0 00-.8.07 3.63 3.63 0 00-.61.19v5a2.16 2.16 0 00.44.1h.54a3 3 0 001-.18 2.43 2.43 0 00.87-.53 2.8 2.8 0 00.61-.9 3.2 3.2 0 00.26-1.26zm3.65.33a3.21 3.21 0 00.15 1 2.12 2.12 0 00.46.8 2.16 2.16 0 00.78.53 2.79 2.79 0 001.09.2 5 5 0 00.95-.1 4.14 4.14 0 00.9-.3h.07v.85a.16.16 0 01-.07.15 4.13 4.13 0 01-.88.31 5.32 5.32 0 01-1.21.12A3.79 3.79 0 0196.5 44a2.93 2.93 0 01-1.07-.85 3.56 3.56 0 01-.6-1.18 5.09 5.09 0 01-.18-1.34 4.8 4.8 0 01.22-1.47 3.62 3.62 0 01.65-1.16 3 3 0 011-.82 3 3 0 011.37-.31 2.71 2.71 0 012.73 2 3.31 3.31 0 01.16 1v.47a1.68 1.68 0 010 .3c0 .06 0 .09-.1.09a5.22 5.22 0 01-.6 0h-.93zm2.77-.92h.74a.67.67 0 00.21 0 .19.19 0 000-.08v-.08a2.11 2.11 0 00-.07-.5 1.7 1.7 0 00-.27-.58 1.79 1.79 0 00-.54-.48 1.64 1.64 0 00-.86-.2 1.86 1.86 0 00-.81.16 1.72 1.72 0 00-.59.44 2.32 2.32 0 00-.39.62 3.12 3.12 0 00-.18.73zm13.7 4.09c0 .09 0 .14-.08.15a3.25 3.25 0 01-.87.22 9.59 9.59 0 01-1.12.06 6.24 6.24 0 01-1.83-.28 4.58 4.58 0 01-1.6-.89 4.52 4.52 0 01-1.14-1.57 5.63 5.63 0 01-.44-2.33 5.32 5.32 0 01.37-2 4.72 4.72 0 011-1.59 4.82 4.82 0 011.64-1 6.1 6.1 0 012.15-.37 7.53 7.53 0 011.2.08 2.78 2.78 0 01.69.19.12.12 0 01.08.12v1c0 .07 0 .09-.11.07a4.19 4.19 0 00-1.89-.34 4.28 4.28 0 00-1.59.28 3.53 3.53 0 00-1.24.78 3.32 3.32 0 00-.8 1.22 4.3 4.3 0 00-.28 1.6 4.42 4.42 0 00.38 1.93 3.52 3.52 0 001 1.22 3.8 3.8 0 001.27.64 4.91 4.91 0 001.26.18 9.81 9.81 0 001 0 3.67 3.67 0 00.85-.22q.09 0 .09.06zm4.35-7.07a3.38 3.38 0 011.41.29 2.92 2.92 0 011.06.78 3.7 3.7 0 01.67 1.18 4.48 4.48 0 01.24 1.49 4.74 4.74 0 01-.25 1.54 3.55 3.55 0 01-.7 1.18 3 3 0 01-1.07.76 3.37 3.37 0 01-1.36.28 3.32 3.32 0 01-1.53-.33 3.09 3.09 0 01-1.06-.86 3.49 3.49 0 01-.61-1.2 4.57 4.57 0 01-.2-1.36 4.44 4.44 0 01.23-1.47 3.77 3.77 0 01.68-1.19 3.31 3.31 0 011.08-.8 3.38 3.38 0 011.41-.29zm-.06 1.07a1.9 1.9 0 00-.86.19 2.12 2.12 0 00-.66.54 2.55 2.55 0 00-.42.84 3.4 3.4 0 00-.16 1.08 3.62 3.62 0 00.15 1.06 2.93 2.93 0 00.42.87 2 2 0 00.68.57 2 2 0 00.94.21 1.87 1.87 0 00.77-.16 1.81 1.81 0 00.67-.48 2.77 2.77 0 00.47-.83 3.51 3.51 0 00.18-1.19 3.66 3.66 0 00-.13-1 2.68 2.68 0 00-.38-.86 1.94 1.94 0 00-1.67-.84zm5.07 6.28c-.06 0-.09 0-.09-.11v-7a.08.08 0 01.09-.09h.93a.14.14 0 01.12.08 1.8 1.8 0 01.05.32v.39a3.13 3.13 0 012.22-.94 2.09 2.09 0 012 1.08 4.8 4.8 0 011.06-.77 3.12 3.12 0 011.41-.31 3.06 3.06 0 01.84.13 2 2 0 01.77.44 2.53 2.53 0 01.57.87 3.93 3.93 0 01.22 1.39v4.43c0 .06 0 .09-.11.09h-1c-.07 0-.1 0-.1-.11v-4.32a2.27 2.27 0 00-.36-1.29 1.32 1.32 0 00-1.15-.53 2.28 2.28 0 00-1 .23 2.54 2.54 0 00-.8.63v.41a4.87 4.87 0 010 .54v4.33c0 .07 0 .11-.1.11h-1c-.07 0-.1 0-.1-.11v-4.36a2 2 0 00-.38-1.31 1.34 1.34 0 00-1.1-.47 2.2 2.2 0 00-.94.2 2.91 2.91 0 00-.85.63v5.33a.08.08 0 01-.09.09zm14.98-7.35a3.76 3.76 0 011.46.27 3.21 3.21 0 011.09.73 3.29 3.29 0 01.68 1.11 3.94 3.94 0 01.23 1.39 4 4 0 01-.36 1.76 3.64 3.64 0 01-1 1.25 4 4 0 01-1.36.74 4.88 4.88 0 01-1.55.25h-.76v3c0 .06 0 .09-.07.1H134c-.05 0-.07 0-.07-.09v-9.85a.06.06 0 010-.06c.25-.1.62-.23 1.09-.37a5.55 5.55 0 011.68-.23zm-.15 1.08a4 4 0 00-.72.06 3.57 3.57 0 00-.66.18v5a1.84 1.84 0 00.42.08h.41a3.49 3.49 0 001-.17 2.75 2.75 0 00.93-.52 2.48 2.48 0 00.65-.89 3 3 0 00.26-1.28 2.58 2.58 0 00-.62-1.81 2.24 2.24 0 00-1.67-.65zM146.8 43v.36a2.07 2.07 0 000 .35.06.06 0 010 .06 5.81 5.81 0 01-1.46.51 7.36 7.36 0 01-1.31.13 3.85 3.85 0 01-1.1-.15 2.74 2.74 0 01-.87-.44 2 2 0 01-.58-.72 2.32 2.32 0 01-.2-1 1.92 1.92 0 01.25-1 2.29 2.29 0 01.71-.71 3.37 3.37 0 011-.41 5.91 5.91 0 011.3-.13h1.02v-.36a1.91 1.91 0 00-.06-.43 1.21 1.21 0 00-.24-.48 1.47 1.47 0 00-.5-.4 2 2 0 00-.87-.17 4.19 4.19 0 00-1 .12 4 4 0 00-.86.32c-.07 0-.11 0-.11-.07v-.9a.14.14 0 01.08-.12 4.16 4.16 0 011-.33 5.31 5.31 0 011.14-.12 3 3 0 011.22.23 2 2 0 01.83.6 2.4 2.4 0 01.47.88 3.4 3.4 0 01.16 1.08zm-1.2-2.18h-.98a2.94 2.94 0 00-1.6.35 1.09 1.09 0 00-.53 1 1.37 1.37 0 00.09.49 1 1 0 00.3.42 1.6 1.6 0 00.55.3 2.76 2.76 0 00.82.11 3.49 3.49 0 001.35-.25zm3.27-2.13v-1.31a1.7 1.7 0 000-.28.08.08 0 01.09-.09h.92a.14.14 0 01.13.09 1.54 1.54 0 01.05.3v.44a3.12 3.12 0 012.27-1 3 3 0 01.82.12 1.93 1.93 0 01.77.44 2.27 2.27 0 01.59.87 3.85 3.85 0 01.23 1.43v4.4a.1.1 0 01-.1.11h-1c-.07 0-.1 0-.1-.12v-4.25a2.33 2.33 0 00-.37-1.36A1.33 1.33 0 00152 38a2.23 2.23 0 00-1 .24 2.57 2.57 0 00-.82.66v5.2c0 .07 0 .11-.09.11h-1c-.06 0-.09 0-.09-.11zM157 37a.11.11 0 01.1.08q.45 1.23.81 2.16l.6 1.61c.16.46.3.83.4 1.13s.18.54.23.71l.84-2.36 1.16-3.25a.14.14 0 01.12-.08h1.05c.07 0 .09 0 .06.11q-.42 1.2-.9 2.49c-.32.86-.65 1.73-1 2.61s-.69 1.74-1.05 2.6-.72 1.68-1.08 2.47a.18.18 0 01-.16.1l-1.11.09c-.06 0-.07 0-.05-.12q.33-.68.72-1.53l.75-1.74a.21.21 0 000-.19l-.27-.65c-.11-.29-.25-.62-.4-1s-.32-.78-.5-1.22-.36-.88-.54-1.34l-.54-1.35c-.18-.44-.34-.85-.49-1.24 0-.06 0-.09.08-.09zM22.05 0v36.69l9.37-7.48V5.09L22.05 0zm-4.36 28.68l-7.57 3.3V3.18l7.57 2.25v23.25zM0 27.83l5.77-1.51V7.91L0 7v20.83zM62.32 5.09l-7.99 13.12-8.1-13.12h-4.27v24.12h4.03V11.6l8.24 13.24L62.5 11.5v17.71h3.99V5.09h-4.17zM80 29.21V27a6.21 6.21 0 01-5.27 2.58c-3.07 0-5.2-2-5.2-4.86 0-3.13 2-5 6-5.61l4.37-.69v-.28c0-1.79-1.34-2.79-3.65-2.79a8.38 8.38 0 00-5.72 2.41v-3.85a9.4 9.4 0 016-2c4.72 0 7.26 2.42 7.26 6.45v10.85zm-4.34-2.83a3.9 3.9 0 004.21-3.92v-.93l-3.76.62c-1.82.31-2.75 1.1-2.75 2.3a2 2 0 002.3 1.93M97 16.15a2.35 2.35 0 00-1-.14c-2.93 0-4.72 2.28-4.72 5.76v7.44h-4V12.33h3.93v2.89a5.42 5.42 0 015-3.24c.44 0 .68 0 .75.11zm2.53-11.06v24.12h3.96v-6.69l.86-.79 6.03 7.48h4.89l-7.89-9.55 7.34-7.33h-4.89l-6.34 6.37V5.09h-3.96z"/><path class="cls-1" d="M130.28 27.83a12.27 12.27 0 01-6.51 1.79c-5.58 0-9.1-3.79-9.1-8.89s3.52-8.82 8.48-8.82 8.09 3.72 8.09 8.72a6.28 6.28 0 01-.1 1.38h-12.5c.31 2.34 2.23 4.2 5.4 4.2a10.34 10.34 0 006.24-2.27zM127.35 19a4.13 4.13 0 00-4.27-3.89 4.54 4.54 0 00-4.44 3.89zm13.94 7a3.14 3.14 0 001.86-.52V29a6.1 6.1 0 01-3 .62c-3.41 0-5.41-2.07-5.41-5.61V15.7h-3l7-8.86v5.49h4.47v3.37h-4.47v7.58c0 1.9.82 2.69 2.61 2.69m20.99-5.2a9 9 0 01-18 0 9 9 0 0118 0m-14 0a5 5 0 1010.06 0 5 5 0 10-10.06 0"/><path class="cls-1" d="M162.46 9h3v.67h-1.16v3.53h-.73V9.62h-1.16zm4.66 1.09v3.06h-.7V9h.74l1.41 2.14L170 9h.73v4.2H170v-3.13L168.73 12h-.35z" id="Layer_2-2" data-name="Layer 2"/></g></g></svg>