<svg height="32" viewBox="0 0 210 32" width="210" xmlns="http://www.w3.org/2000/svg"><path d="m726.529921 88.3067538c1.982242-.1171618 3.666892-.0191024 5.624867.3171012.823806.1439054 1.510949.3323832 2.290052.6342024.800816.3094602 1.438147.6711339 2.109964 1.2034563.772717.6074589 1.281049 1.3091567 1.61568 2.2311698.326968.9092781.475125 1.7268643.482789 2.6947234h-7.899593c.038317-.9283806-.514718-1.7345053-1.395999-2.0337775-.918319-.3120072-1.780442-.3349302-2.716642-.0649485-.528768.1540934-.929815.4686476-1.200585.9513036-.014049.02547-.025544.0496665-.038317.0764099-.227344.5017585-.003831 1.0939355.50067 1.3206182.204355.0929654.386997.1540934.606678.2063068.476403.1107944.882558.1884779 1.365346.2597938 1.803432.2674347 3.311826.5883564 5.068001 1.0748329.31675.0865979.584966.1630079.899161.2534263 1.435593.4177076 2.578703 1.039175 3.707764 2.014675.823805.7131596 1.352573 1.5103696 1.687204 2.5444506.885112 2.74439.063861 5.574104-2.150835 7.428318-.499392.417708-.963022.727168-1.541601 1.02644-1.314258.678775-2.519951 1.071013-3.981089 1.293875-3.115134.476288-5.844548.30564-8.875386-.555246-1.459861-.416434-2.618297-1.062098-3.728199-2.097452-.850628-.789569-1.413881-1.626258-1.825145-2.708732-.27077-.719527-.390828-1.371558-.390828-2.140751v-.476289h8.198461c-.007663.425349.042148.784475.167316 1.190721.149434.478836.397214.849424.781657 1.172893.298869.245785.58752.410066.951527.539963.752282.272529 1.452197.337477 2.241518.211401.590074-.091692 1.069031-.336204 1.489236-.760279.413818-.413887.576025-.958944.453412-1.533292-.112395-.525955-.466185-.923287-.980903-1.091389-.615619-.205033-1.152051-.33875-1.793214-.446998-1.735739-.295451-3.195599-.571801-4.919843-.927107-.874895-.17829-1.601632-.394784-2.430546-.724621-1.637393-.650757-2.794553-1.8058207-3.445934-3.4358991-.364007-.9105516-.505778-1.7446933-.461075-2.7240139.025544-.5845359.118781-1.0773799.314195-1.6326254.429145-1.2251058 1.099685-2.1611273 2.124013-2.962158 1.205694-.9423891 2.407556-1.5167371 3.899347-1.8669492 1.108625-.2585203 2.063984-.3986051 3.196876-.4635536zm90.946852.520861c1.725522.4444511 3.095976 1.1932684 4.401293 2.4043657.823805.7615522 1.408771 1.526925 1.927322 2.517707.614341 1.1716188.862122 2.3101267.791875 3.6294714h-7.654367c-.166038-1.0226195-.657767-1.8376587-1.484127-2.4642201-1.070309-.8137656-2.450981-.8787141-3.595368-.1731958-.781658.485203-1.295099 1.1448754-1.572256 2.019769-.659044 2.0847175-.68842 4.024256-.1009 6.12935.250335.885081.67054 1.579138 1.342356 2.210793.765054.728442 1.719135 1.027714 2.766454.87362.648827-.094238 1.176318-.376955 1.613126-.867252.458522-.505579.720351-1.04809.84041-1.719223.084296-.472469.131553-.872347.157097-1.351183h8.069463c.160929 2.426015-.61051 4.556579-2.288775 6.316554-1.691036 1.77271-3.60814 2.829714-6.013141 3.31237-1.623344.32729-3.044888.396058-4.695053.22541-2.186597-.224136-3.991306-.92456-5.751312-2.237538-1.439425-1.069739-2.470139-2.227349-3.370578-3.77847-.694807-1.20091-1.099685-2.324136-1.324475-3.691873-.315473-1.897513-.232454-3.5670703.268216-5.422558 1.144387-4.2203748 4.328491-7.2118234 8.619943-8.101999 2.450981-.508126 4.629915-.4559126 7.052797.1681018zm-64.908196-.5244009c.895329 0 1.651442.0573075 2.536554.1973923 2.572317.4011521 4.652905 1.4288656 6.530415 3.2270459 2.009064 1.9242566 3.106194 4.2012723 3.357806 6.9660381.151989 1.6975738.021713 3.1608238-.436809 4.8023638-.701192 2.518981-2.020558 4.464887-4.103701 6.054213l-.316274.235044c-1.26576.910826-2.546757 1.472914-4.104177 1.811469-1.200584.26234-2.237685.370588-3.463814.370588-1.227407 0-2.263231-.108248-3.462538-.370588-1.688482-.366768-3.051274-.995876-4.421728-2.046513-2.081865-1.589326-3.401232-3.535232-4.103701-6.054213-.458522-1.64154-.590075-3.10479-.436809-4.8023638.251612-2.7647658 1.351297-5.0417815 3.359083-6.9660381 1.876233-1.7956333 3.958098-2.8258938 6.527861-3.2270459.886389-.1400848 1.641225-.1973923 2.537832-.1973923zm-102.802004.407239c3.254351-.5628864 6.103824-.505579 9.332631.1833839 1.014111.2190418 1.84558.5297754 2.752404 1.0353545 1.502008.8379621 2.475249 2.0987259 2.905671 3.7580948.329522 1.2658577.473848 2.3699811.482788 3.6778643.016604 2.4234682.044703 4.4687076.094514 6.8934486.03704 1.8453.107287 3.402789.232454 5.241721.04598.657125.22479 1.20473.57858 1.758702h-8.298085c-.209463-.23305-.347403-.464827-.452135-.764099-.187751-.533596-.33974-.989509-.503224-1.534566l-.207951.24101c-.770229.859487-1.630072 1.45582-2.727095 1.89592-2.462476.990782-4.852151 1.111765-7.404032.374409-2.297715-.667313-3.921059-2.389084-4.445996-4.717039-.203077-.89527-.233731-1.687386-.104732-2.596664.195415-1.363917.775272-2.462947 1.791937-3.390054.782935-.71698 1.579919-1.1805332 2.588921-1.5065489 1.107348-.3565797 2.058875-.6061854 3.198153-.8315947.84041-.1706488 1.554374-.3018192 2.399893-.4406306 1.067754-.1770163 1.963084-.3705881 3.009125-.6520313.231176-.061128.422759-.1235294.647549-.2088538.36273-.1388114.637332-.3527592.860845-.6711339.255444-.3604001.320582-.7755607.191583-1.1970888-.210741-.6736808-.689698-1.1576104-1.364069-1.3779256-1.023051-.3336567-1.995014-.3196482-3.006571.0509399-.687143.2496058-1.172486.7360823-1.418989 1.4212246-.162206.4495451-.223513.8545177-.205632 1.3333532l-7.533031-.1833838c-.067692-.1362644-.104732-.2623408-.121335-.4113401-.094515-.8137657-.028099-1.521831.214572-2.3024857.636055-2.0414185 2.001401-3.5314121 3.983643-4.3489983.857013-.3540326 1.61568-.5730744 2.527614-.7309883zm50.2598 0c3.253074-.5628864 6.102547-.505579 9.331354.1833839 1.014111.2190418 1.845579.5297754 2.752404 1.0353545 1.500731.8379621 2.475248 2.0987259 2.905671 3.7580948.328245 1.2658577.47257 2.3699811.482788 3.6778643.016604 2.4234682.04598 4.4687076.094514 6.8934486.03704 1.8453.107287 3.402789.232454 5.241721.044703.657125.22479 1.20473.57858 1.758702h-8.298085c-.209464-.23305-.347403-.464827-.453412-.764099-.186474-.533596-.338463-.989509-.503224-1.534566l-.207902.24101c-.769879.859487-1.627673 1.45582-2.725867 1.89592-2.461199.990782-4.853428 1.111765-7.402755.374409-2.30027-.667313-3.921059-2.389084-4.44855-4.717039-.2018-.89527-.231176-1.687386-.103455-2.596664.194137-1.363917.775272-2.462947 1.791937-3.390054.781657-.71698 1.578641-1.1805332 2.590198-1.5065489 1.104793-.3565797 2.057598-.6061854 3.198153-.8315947.839133-.1706488 1.55182-.3018192 2.398616-.4406306 1.069031-.1770163 1.963083-.3705881 3.010402-.6520313.229899-.061128.421482-.1235294.646272-.2088538.364007-.1388114.638609-.3527592.860845-.6711339.255444-.3604001.320582-.7755607.189028-1.1970888-.209463-.6736808-.687143-1.1576104-1.360237-1.3779256-1.024328-.3336567-1.997568-.3196482-3.007848.0509399-.687143.2496058-1.172486.7360823-1.418989 1.4212246-.162206.4495451-.22479.8545177-.205632 1.3333532l-7.533031-.1833838c-.067692-.1362644-.104732-.2623408-.122613-.4113401-.093237-.8137657-.028099-1.521831.21585-2.3024857.636055-2.0414185 2.0014-3.5314121 3.983643-4.3489983.85829-.3540326 1.614403-.5730744 2.528891-.7309883zm100.184058.2193991v22.320777h-8.371111v-22.320777zm-169.665412-8.929852c.618173 0 1.140555.0114615 1.757451.045846 4.124137.2203152 7.521536 2.5036985 9.26877 6.2350498.90938 1.9420856 1.218466 3.8090348.984735 5.9408717-.493006 4.4878096-3.641348 7.9784695-8.064353 8.9450555-1.466246.320921-2.735801.457186-4.236532.457186h-5.744926v9.625103h-9.510164v-31.249112zm55.034017 8.5436259c2.454812.7169798 4.222482 2.4374766 4.996476 4.8685857.37167 1.1677983.5326 2.2044263.5326 3.4295321v14.4058183h-8.890714v-12.9553032c0-.4329896-.05492-.7997572-.181365-1.2149178-.229899-.7437233-.722905-1.2913278-1.444533-1.5944205-1.57481-.6673133-3.366746-.0764099-4.230146 1.3957547-.36273.6138264-.527491 1.2187383-.527491 1.9318976v12.4369892h-8.609725v-22.3218865h8.077125l.187751 2.3597932c1.100962-.9602181 2.150835-1.6377194 3.476587-2.2502723 2.163608-.995876 4.327215-1.1576104 6.613435-.4915705zm99.010861 0c2.453536.7169798 4.221205 2.4374766 4.995199 4.8685857.371671 1.1677983.5326 2.2044263.5326 3.4295321v14.4058183h-8.890714v-12.9553032c0-.4329896-.052365-.7997572-.182642-1.2149178-.227344-.7437233-.720351-1.2913278-1.440701-1.5944205-1.576087-.6673133-3.368024-.0764099-4.2327 1.3957547-.361453.6138264-.526214 1.2187383-.526214 1.9318976v12.4369892h-8.611003v-22.3218865h8.078403l.186474 2.3597932c1.100962-.9602181 2.150835-1.6377194 3.479141-2.2502723 2.16233-.995876 4.32466-1.1576104 6.612157-.4915705zm-127.618538 12.6611231c-1.023052.468648-1.918381.798484-3.001462 1.10285-.89533.253426-1.64378.494118-2.518674.815039-.36273.132444-.651381.300546-.945141.551425-.44064.373135-.62456.914372-.507055 1.477259.07791.366767.229899.662219.48662.937295.301423.320922.634777.519587 1.061368.636749.526213.146453.993675.185931 1.53777.132444.647549-.066222 1.18909-.205033 1.78555-.468647.638609-.28017 1.11118-.680049 1.490514-1.265858l.13095-.215622c.244891-.430926.389242-.864123.460402-1.374978.113672-.812492.118781-1.511643.019158-2.327956zm50.257246 0c-1.021775.468648-1.918382.798484-3.001462 1.10285-.89533.253426-1.642503.494118-2.517397.815039-.361453.132444-.650104.300546-.945141.551425-.44064.373135-.625837.914372-.507056 1.477259.077911.366767.2299.662219.485343.937295.302701.320922.636055.519587 1.062645.636749.524937.146453.994953.185931 1.536494.132444.650103-.066222 1.190367-.205033 1.788105-.468647.637331-.28017 1.108625-.680049 1.487958-1.265858l.131826-.215622c.246231-.430926.389644-.864123.460803-1.374978.113673-.812492.118782-1.511643.017882-2.327956zm47.130631-6.6180922c-1.510949-.9844146-3.534062-.56416-4.522628.939842-.452136.6889629-.722906 1.3486352-.880004 2.1573069-.307809 1.557489-.334631 2.9188593-.097068 4.4865363.117504.784475.307809 1.431412.6335 2.153486.353789.781928.909379 1.334627 1.692314 1.686113 1.699977.762825 3.692436.007641 4.45749-1.686113l.131479-.30548c.247125-.60424.401486-1.175599.503298-1.848006.237563-1.567677.206909-2.9290473-.097068-4.4865363-.157098-.8086717-.427868-1.468344-.881281-2.1573069-.25672-.3935111-.545372-.6813218-.940032-.939842zm-124.282956-7.0768347h-5.566116v6.7902953h3.733308c.708856 0 1.309148-.0165554 2.018004-.0560339.982181-.053487 1.798323-.4915705 2.383289-1.2798662.310364-.4189811.485343-.8417827.559421-1.3588232.061307-.4355366.070247-.8073982.026822-1.2429348-.159652-1.6300784-1.513503-2.8526372-3.154728-2.8526372zm170.134151-7.5072341v5.8963704h-8.371111v-5.8963704z" transform="translate(-615 -80)"/></svg>