<?xml version="1.0" encoding="utf-8"?>
<!-- Generator: Adobe Illustrator 23.0.3, SVG Export Plug-In . SVG Version: 6.00 Build 0)  -->
<svg version="1.1" id="Layer_1" xmlns="http://www.w3.org/2000/svg" xmlns:xlink="http://www.w3.org/1999/xlink" x="0px" y="0px"
	 viewBox="0 0 360 360" style="enable-background:new 0 0 360 360;" xml:space="preserve">
<style type="text/css">
	.st0{fill:#5B4C9F;}
</style>
<g>
	<path class="st0" d="M250.2,169.9h-14.6v19h14.6V169.9z M247.5,186.2h-9.2v-13.6h9.2V186.2z"/>
	<path class="st0" d="M273.2,169.9h-14.6v19h14.6V169.9z M270.5,186.2h-9.2v-13.6h9.2V186.2z"/>
	<path class="st0" d="M250.2,197.5h-14.6v19h14.6V197.5z M247.5,213.7h-9.2v-13.6h9.2V213.7z"/>
	<path class="st0" d="M273.2,197.5h-14.6v19h14.6V197.5z M270.5,213.7h-9.2v-13.6h9.2V213.7z"/>
	<path class="st0" d="M250.2,224.5h-14.6v19h14.6V224.5z M247.5,240.7h-9.2v-13.6h9.2V240.7z"/>
	<path class="st0" d="M273.2,224.5h-14.6v19h14.6V224.5z M270.5,240.7h-9.2v-13.6h9.2V240.7z"/>
	<rect x="145.4" y="99.3" class="st0" width="11.9" height="16.3"/>
	<rect x="161.1" y="148.6" class="st0" width="11.9" height="16.3"/>
	<rect x="145.4" y="171.2" class="st0" width="11.9" height="16.3"/>
	<rect x="161.1" y="122.9" class="st0" width="11.9" height="16.3"/>
	<rect x="181.9" y="122.9" class="st0" width="11.9" height="16.3"/>
	<rect x="202.9" y="122.9" class="st0" width="11.9" height="16.3"/>
	<rect x="202.2" y="225.8" class="st0" width="11.9" height="16.3"/>
	<rect x="180.1" y="225.8" class="st0" width="11.9" height="16.3"/>
	<rect x="180.1" y="201" class="st0" width="11.9" height="16.3"/>
	<rect x="160.4" y="201" class="st0" width="11.9" height="16.3"/>
	<rect x="85.3" y="143.8" class="st0" width="37.6" height="7.2"/>
	<rect x="85.3" y="161" class="st0" width="37.6" height="7.2"/>
	<rect x="85.3" y="178.3" class="st0" width="37.6" height="7.2"/>
	<path class="st0" d="M301.5,269.8h-14.3V159.8c0-1.5-1.2-2.7-2.7-2.7h-41V88.2c0-1.5-1.2-2.7-2.7-2.7H133.5c-1.5,0-2.7,1.2-2.7,2.7
		v40.1H74.6c-1.5,0-2.7,1.2-2.7,2.7v138.8H58.4c-1.5,0-2.7,1.2-2.7,2.7s1.2,2.7,2.7,2.7h16.3h58.8h90.9h23.6c1.5,0,2.7-1.2,2.7-2.7
		v-12.9h8.4v12.9c0,1.5,1.2,2.7,2.7,2.7h22.8c0.1,0,0.2,0,0.4,0c0.1,0,0.2,0,0.4,0h16.3c1.5,0,2.7-1.2,2.7-2.7
		S303,269.8,301.5,269.8z M77.4,133.7h53.4v136.1H77.4V133.7z M221.6,159.8v110.1h-85.4V131V90.9H238v66.2h-13.7
		C222.8,157.1,221.6,158.3,221.6,159.8z M281.8,269.8h-17.4v-12.9c0-1.5-1.2-2.7-2.7-2.7h-13.8c-1.5,0-2.7,1.2-2.7,2.7v12.9H227
		V162.5h54.8V269.8z"/>
</g>
</svg>
